<svg width="24" height="24" viewBox="0 0 24 24" fill="none" xmlns="http://www.w3.org/2000/svg">
<path d="M5.828 6.95L8.364 9.486L6.95 10.9L2 5.95L6.95 1L8.364 2.414L5.828 4.95H13C15.1217 4.95 17.1566 5.79286 18.6569 7.29315C20.1571 8.79344 21 10.8283 21 12.95C21 15.0717 20.1571 17.1066 18.6569 18.6069C17.1566 20.1071 15.1217 20.95 13 20.95H4V18.95H13C14.5913 18.95 16.1174 18.3179 17.2426 17.1926C18.3679 16.0674 19 14.5413 19 12.95C19 11.3587 18.3679 9.83258 17.2426 8.70736C16.1174 7.58214 14.5913 6.95 13 6.95H5.828Z" fill="black"/>
</svg>
